<?xml version="1.0" encoding="UTF-8" standalone="no"?>
<!-- Generator: Adobe Illustrator 21.0.2, SVG Export Plug-In . SVG Version: 6.00 Build 0)  -->

<svg
   version="1.1"
   id="Mode_Isolation"
   x="0px"
   y="0px"
   viewBox="0 0 151.1811 151.1811"
   xml:space="preserve"
   sodipodi:docname="astro.svg"
   width="40mm"
   height="40mm"
   inkscape:version="1.4.2 (ebf0e940d0, 2025-05-08)"
   xmlns:inkscape="http://www.inkscape.org/namespaces/inkscape"
   xmlns:sodipodi="http://sodipodi.sourceforge.net/DTD/sodipodi-0.dtd"
   xmlns="http://www.w3.org/2000/svg"
   xmlns:svg="http://www.w3.org/2000/svg"><defs
   id="defs11">
	
	
	
	
	
	
	
	
	
	
	
	
	
</defs><sodipodi:namedview
   id="namedview11"
   pagecolor="#505050"
   bordercolor="#eeeeee"
   borderopacity="1"
   inkscape:showpageshadow="0"
   inkscape:pageopacity="0"
   inkscape:pagecheckerboard="0"
   inkscape:deskcolor="#505050"
   inkscape:zoom="5.6568544"
   inkscape:cx="87.504462"
   inkscape:cy="70.975841"
   inkscape:window-width="1875"
   inkscape:window-height="2095"
   inkscape:window-x="0"
   inkscape:window-y="0"
   inkscape:window-maximized="0"
   inkscape:current-layer="g34"
   inkscape:document-units="mm" />
<style
   type="text/css"
   id="style1">
	.st0{fill:#F7F187;}
	.st1{fill:#FFFFFF;}
	.st2{fill:none;stroke:#FFFFFF;stroke-width:1.3063;stroke-miterlimit:10;}
	.st3{fill:none;stroke:#F7F187;stroke-width:1.3063;stroke-miterlimit:10;}
	.st4{fill:#050C4E;}
	.st5{fill:none;}
</style>

<ellipse
   class="st0"
   cx="75.590546"
   cy="75.590546"
   id="circle1"
   style="fill:#f7f187;fill-opacity:1;stroke:none;stroke-width:0.245669;stroke-dasharray:none;stroke-opacity:0.726537"
   rx="75.590546"
   ry="75.543922" /><g
   id="g34"
   clip-path="none"><path
     style="display:inline;fill:none;fill-opacity:1;stroke:#000000;stroke-width:7.42677;stroke-linecap:round;stroke-linejoin:round;stroke-dasharray:none;stroke-opacity:1"
     d="m 27.975239,131.44841 c 0,0 -0.02218,-22.73027 0,-30.13003 1.668607,-5.505299 5.468892,-9.44915 9.125775,-13.446515 2.916566,-3.188124 10.038351,-8.204648 10.038351,-8.204648"
     id="path23-5"
     sodipodi:nodetypes="ccac" /><path
     style="display:inline;fill:none;fill-opacity:1;stroke:#000000;stroke-width:7.42677;stroke-linecap:round;stroke-linejoin:round;stroke-dasharray:none;stroke-opacity:1"
     d="m 125.29029,129.68064 c 0,0 0.0222,-20.9625 0,-28.36226 -1.66861,-5.505299 -5.46889,-9.44915 -9.12578,-13.446511 -2.91656,-3.188126 -10.03835,-8.204647 -10.03835,-8.204647"
     id="path23-5-5"
     sodipodi:nodetypes="ccac" /><path
     style="display:inline;fill:none;fill-opacity:1;stroke:#000000;stroke-width:7.42675;stroke-linecap:round;stroke-linejoin:round;stroke-dasharray:none;stroke-opacity:1"
     d="m 28.730885,122.99047 h 18.588449 v 20.99199"
     id="path23" /><path
     style="display:inline;fill:none;fill-opacity:1;stroke:#000000;stroke-width:7.42677;stroke-linecap:round;stroke-linejoin:round;stroke-dasharray:none;stroke-opacity:1"
     d="m 123.65499,123.65189 h -17.70456 v 20.28487"
     id="path23-2" /><rect
     style="display:inline;fill:none;fill-opacity:1;stroke:#000000;stroke-width:7.42677;stroke-linejoin:round;stroke-dasharray:none;stroke-opacity:1"
     id="rect23"
     width="30.836237"
     height="18.745756"
     x="61.214649"
     y="120.81528"
     ry="3.4736516" /><path
     id="rect24"
     style="display:inline;fill:none;stroke:#000000;stroke-width:7.42677;stroke-linejoin:round;stroke-dasharray:none;stroke-opacity:1"
     d="m 60.78967,43.196492 c 7.558651,-1.992051 21.961001,-1.956756 32.816508,0 3.274578,0.593512 5.444534,3.573932 5.444534,6.858885 v 13.605557 c 0,3.284955 -3.779848,6.301266 -5.444534,6.301266 -11.528821,2.485343 -22.781224,1.69047 -34.323597,0 -1.649107,-0.224172 -5.06776,-3.016311 -5.06776,-6.301266 V 50.055377 c 0,-3.284953 3.35825,-6.011164 6.574849,-6.858885 z"
     sodipodi:nodetypes="sssszzsss" /><ellipse
     style="display:inline;fill:none;fill-opacity:1;stroke:#000000;stroke-width:7.42677;stroke-linejoin:round;stroke-dasharray:none;stroke-opacity:1"
     id="path24"
     cx="76.632767"
     cy="57.259495"
     rx="36.586128"
     ry="36.54805" /><path
     style="display:inline;fill:none;fill-opacity:1;stroke:#000000;stroke-width:7.42677;stroke-linejoin:round;stroke-dasharray:none;stroke-opacity:1"
     d="m 37.052838,87.209098 c 0,0 12.902054,20.679882 40.609694,20.739532 27.707638,0.0597 38.556408,-20.739532 38.556408,-20.739532"
     id="path25"
     sodipodi:nodetypes="czc" /><path
     style="display:inline;fill:none;fill-opacity:1;stroke:#000000;stroke-width:7.42677;stroke-linejoin:round;stroke-dasharray:none;stroke-opacity:1"
     d="m 30.664795,95.641651 c 0,0 0.170395,-24.180815 0.912578,-25.981383 2.452328,-5.949455 8.669485,-10.027903 8.669485,-10.027903"
     id="path26"
     sodipodi:nodetypes="csc" /><path
     style="display:inline;fill:none;fill-opacity:1;stroke:#000000;stroke-width:7.42677;stroke-linejoin:round;stroke-dasharray:none;stroke-opacity:1"
     d="m 123.0048,95.850159 c 0,0 -0.17039,-24.180815 -0.91258,-25.981383 -2.45232,-5.949455 -8.66948,-10.027903 -8.66948,-10.027903"
     id="path26-1"
     sodipodi:nodetypes="csc" /></g></svg>
