<?xml version="1.0" encoding="utf-8"?>
<!-- Generator: Adobe Illustrator 19.2.1, SVG Export Plug-In . SVG Version: 6.00 Build 0)  -->
<svg version="1.1" id="Calque_1" xmlns="http://www.w3.org/2000/svg" xmlns:xlink="http://www.w3.org/1999/xlink" x="0px" y="0px"
	 viewBox="0 0 429.5 125" style="enable-background:new 0 0 429.5 125;" xml:space="preserve">
<path d="M213.2,59.6c-2.1-1.5-3.7-2.8-4.4-3.7c-1.6-1.9-2.5-4-2.6-4.1c-1-2.3-1.4-4.7-1.2-7.3l0,0c0-1.3,0-13.5,0-13.5h-10.4
	l-1.6-3.1h12V17h3.3v10.8h12.1l-1.6,3.1h-10.4c0,0,0,13.3,0,14.5c0,1.8,0.3,3.5,1,5c0,0,0.8,1.7,2,3.2c0.6,0.6,1.8,1.7,3.4,2.9
	L213.2,59.6z M110.5,58.8c0-10.2,9.7-12.6,29.5-13.4c-0.6-9.3-3.7-15.2-14.6-15.2c-3,0-5.8,0.5-8.6,1.8l-1.5-2.9
	c3.3-1.7,6.7-2.1,10.1-2.1c13,0,18.1,7,18.1,22.1c0,15-5.1,22.1-18.1,22.1c-0.1,0-0.6,0-0.7,0C113.7,71.1,110.5,66.1,110.5,58.8z
	 M114,58.9c0,2.8,0.5,4.9,1.9,6.4c0.4,0.5,1,0.9,1.7,1.2c2.6,1.1,5.2,1.5,7.9,1.5c12.2,0,14.7-7.4,14.7-18.9c0-0.2,0-0.5,0-0.7
	C123.5,49.2,114,50.6,114,58.9z M173.1,26.9h-1.9c-12.5,0-14.2,10.5-14.2,19.7v22.2c1,0.9,2.2,1.6,3.4,2.2V47.7
	c0-10.4,1.5-17.7,11.4-17.7h0.9c9.8,0,11.4,7.3,11.4,17.7v23.4c1.2-0.6,2.4-1.3,3.4-2.2V46.7C187.3,37.4,185.5,26.9,173.1,26.9z
	 M264.6,46.7c-2.5-2.9-7.4-4.4-16-7.5c-1.9-0.7-3.6-1.3-5.3-2.1l0,0c-5.1-2.1-8.7-4.8-8.7-10.8c0-9.2,6.4-12.1,14.5-12.1
	c3.8,0,7.5,0.4,11.2,1.7l1.5-2.9c-4-1.5-8.3-2-12.8-2c-9.4,0-17.7,4.1-17.7,15.4c0,6.7,3.4,10.4,8.6,12.9l0,0
	c0.8,0.3,1.4,0.6,2.1,0.9c0,0,0,0,0,0l0,0c1.9,0.8,3.3,1.4,5.1,2c8.4,3,12.3,3.5,15.1,6.6c0.2,0.2,4.1,4.8,3.1,10.4
	c-0.5,2.9-2.2,5.5-4.9,7.8c-6.2,5.1-15.9,4-25.2,0.9l-1.6,3.1c5.1,1.8,10.4,3,15.4,3c5.1,0,9.7-1.2,13.5-4.3
	c4.2-3.5,5.7-7.2,6.1-9.8C269.7,52.9,265.1,47.3,264.6,46.7z M67.7,93.2c-0.9,0.9-1.8,1.7-2.9,2.3c-9.3-4.8-16-13.1-19.4-23.9
	c-3.2,1.6-7.1,2.4-11.8,2.4c-16.6,0-23.1-9.7-23.1-30.7c0-20.9,6.5-30.7,23.1-30.7c16.6,0,23.1,9.7,23.1,30.7
	c0,13-2.5,21.6-8.4,26.4C51.5,80.6,58.3,88.7,67.7,93.2z M53.2,43.3c0-16.4-3.3-27.5-19.7-27.5c-16.4,0-19.7,11-19.7,27.5
	c0,16.4,3.3,27.5,19.7,27.5C49.9,70.8,53.2,59.8,53.2,43.3z M371.1,68c-12.2,0-14.7-7.4-14.7-18.9c0-11.5,2.5-18.9,14.7-18.9
	c3.1,0,6,0.5,8.8,1.9l1.5-2.9c-3.4-1.7-6.9-2.1-10.2-2.1c-13,0-18.1,7-18.1,22.1c0,15,5.1,22.1,18.1,22.1c3.4,0,6.9-0.4,10.3-2.1
	l-1.5-2.9C377,67.5,374.1,68,371.1,68z M291.8,64.1c-1.3-1.5-2-3.2-2-3.2c-0.7-1.6-1-3.3-1-5c0-1.2,0-24.7,0-24.7h12l-1.6-3.1h-10.4
	V17.2h-3.3v10.8H275l-1.6,3.1h12.1c0,0,0,22.4,0,23.7l0,0c-0.1,2.6,0.3,5.1,1.2,7.3c0,0.1,1,2.2,2.6,4.1c0.8,0.9,2.4,2.3,4.6,3.8
	l1.5-3.1C293.6,65.8,292.4,64.8,291.8,64.1z M419.2,32.9c-0.7-0.9-1.5-1.7-2.4-2.4l-18.3,18.2v-22h-0.4c-1.1,0.2-2,0.5-3,0.8v42.6
	c1.1,0.4,2.2,0.6,3.4,0.9V49.7l17.8,17.8c0.9-0.7,1.7-1.4,2.5-2.3l-16-16L419.2,32.9z M99.2,29.2c-1-0.9-2.2-1.6-3.4-2.2v23.4
	c0,10.4-1.5,17.7-11.4,17.7h-0.9c-9.8,0-11.4-7.3-11.4-17.7V26.9c-1.2,0.6-2.4,1.3-3.4,2.2v22.2c0,9.2,1.8,19.7,14.2,19.7H85
	c12.5,0,14.2-10.5,14.2-19.7V29.2z M308.8,58.8c0-10.2,9.7-12.6,29.5-13.4c-0.6-9.3-3.7-15.2-14.6-15.2c-3,0-5.8,0.5-8.6,1.8
	l-1.5-2.9c3.3-1.7,6.7-2.1,10.1-2.1c13,0,18.1,7,18.1,22.1c0,15-5.1,22.1-18.1,22.1c-0.1,0-0.6,0-0.7,0
	C312,71.1,308.8,66.1,308.8,58.8z M312.3,58.9c0,2.8,0.5,4.9,1.9,6.4c0.4,0.5,1,0.9,1.7,1.2c2.6,1.1,5.2,1.5,7.9,1.5
	c12.2,0,14.7-7.4,14.7-18.9c0-0.2,0-0.5,0-0.7C321.8,49.2,312.3,50.6,312.3,58.9z M86.3,101.5c-2.2-0.7-4-1.2-4-3.3
	c0-2.3,1.6-3,3.8-3c1.5,0,3,0.3,4.3,1l0.7-1.7c-1.5-0.8-3.3-1-5.1-1c-3.1,0-5.6,1.4-5.6,4.9c0,3.3,2.7,4.3,5.2,5
	c2.3,0.7,4.5,1.1,4.5,3.3c0,2.6-1.7,3.4-3.9,3.4c-2,0-4-0.6-5.6-1.5l-0.7,1.7c1.6,1,3.9,1.6,6.3,1.6c3.5,0,5.9-1.6,5.9-5.1
	C92.1,103.1,88.9,102.2,86.3,101.5z M102.5,99.7c0.9,0,1.9,0.2,2.8,0.6l0.7-1.5c-1-0.6-2.2-0.8-3.5-0.8c-3.8,0-5.5,2.1-5.5,6.8
	c0,4.7,1.7,6.8,5.5,6.8c1.3,0,2.5-0.2,3.5-0.8l-0.7-1.5c-0.9,0.5-1.8,0.6-2.8,0.6c-2.6,0-3.6-1.2-3.6-5.2S99.8,99.7,102.5,99.7z
	 M112.2,96c0.8,0,1.2-0.3,1.2-1.1s-0.5-1.1-1.2-1.1c-0.8,0-1.2,0.3-1.2,1.1S111.4,96,112.2,96z M113.1,98.3l-1.9,0.3v8.3
	c0,1.7,0.1,3.2,0.5,4.5h1.8c-0.4-1.4-0.4-2.9-0.4-4.4V98.3z M129.4,105.2v0.2l-8.7,0.7c0.1,3.1,1.4,4,3.8,4c1.3,0,2.5-0.3,3.7-1
	l0.7,1.4c-1.3,0.9-2.8,1.2-4.4,1.2c-3.4,0-5.7-1.4-5.7-6.8c0-5.7,2.6-6.8,5.4-6.8C127.5,98,129.4,99.6,129.4,105.2z M127.6,104
	c-0.1-3.3-1.3-4.4-3.3-4.4c-2.2,0-3.6,1.2-3.6,4.7v0.3L127.6,104z M140.8,98c-2.2,0-3.5,0.7-4.3,2.1c-0.1-0.7-0.3-1.3-0.5-1.9
	l-1.6,0.4c0.4,1.4,0.5,3,0.5,4.5v8.3h1.9v-9.2c0.8-1.7,1.8-2.6,3.7-2.6c2.7,0,2.9,1.8,2.9,4.7v7.1h1.9v-7.5
	C145.2,100.9,144.6,98,140.8,98z M153.9,94.1l-1.9,0.3v4h-2.2v1.6h2.2v5.2c0,2.9,0.2,5,2.3,6.6l1.3-1.1c-1.6-1.5-1.6-2.8-1.6-5v-5.7
	h2.7l0.2-1.6h-2.9V94.1z M162.5,96c0.8,0,1.2-0.3,1.2-1.1s-0.5-1.1-1.2-1.1c-0.8,0-1.2,0.3-1.2,1.1S161.8,96,162.5,96z M163.5,98.3
	l-1.9,0.3v8.3c0,1.7,0.1,3.2,0.5,4.5h1.8c-0.4-1.4-0.4-2.9-0.4-4.4V98.3z M174.3,94.6c0.3,0,0.7,0.1,1.1,0.2l0.3-1.6
	c-0.5-0.1-1-0.2-1.5-0.2c-2.8,0-3.7,1.6-3.7,3.8c0,0.6,0.1,1.2,0.2,1.8h-2.2v1.6h2.2v11.2h1.9v-11.2h2.8l0.2-1.6h-3
	c-0.2-0.5-0.2-1.2-0.2-1.7C172.2,95.3,172.6,94.6,174.3,94.6z M181.5,96c0.8,0,1.2-0.3,1.2-1.1s-0.5-1.1-1.2-1.1
	c-0.8,0-1.2,0.3-1.2,1.1S180.7,96,181.5,96z M182.4,98.3l-1.9,0.3v8.3c0,1.7,0.1,3.2,0.5,4.5h1.8c-0.4-1.4-0.4-2.9-0.4-4.4V98.3z
	 M193.7,99.7c0.9,0,1.9,0.2,2.8,0.6l0.7-1.5c-1-0.6-2.2-0.8-3.5-0.8c-3.8,0-5.5,2.1-5.5,6.8c0,4.7,1.7,6.8,5.5,6.8
	c1.3,0,2.5-0.2,3.5-0.8l-0.7-1.5c-0.9,0.5-1.8,0.6-2.8,0.6c-2.6,0-3.6-1.2-3.6-5.2S191,99.7,193.7,99.7z M216.6,95.2
	c1.4,0,2.8,0.3,4.1,1l0.8-1.6c-1.4-0.9-3.2-1.1-5-1.1c-4.1,0-6.9,2.1-6.9,9.2c0,7.1,2.9,9.2,6.9,9.2c1.8,0,3.6-0.2,5-1.1l-0.8-1.6
	c-1.3,0.8-2.7,1-4.1,1c-3.1,0-5.1-1.2-5.1-7.4S213.6,95.2,216.6,95.2z M237.1,104.9c0,4.7-1.6,6.8-5.7,6.8c-4.1,0-5.7-2.2-5.7-6.8
	c0-4.7,1.6-6.8,5.7-6.8C235.5,98,237.1,100.2,237.1,104.9z M235.2,104.9c0-3.3-0.6-5.2-3.8-5.2s-3.8,2-3.8,5.2s0.6,5.2,3.8,5.2
	S235.2,108.1,235.2,104.9z M256.6,98c-2.2,0-3.5,0.7-4.5,2.3c-0.6-1.4-1.7-2.3-3.7-2.3c-2.1,0-3.4,0.7-4.2,2.1
	c-0.1-0.7-0.3-1.3-0.5-1.9l-1.6,0.4c0.4,1.4,0.5,3,0.5,4.5v8.3h1.9v-9.2c0.8-1.7,1.7-2.6,3.5-2.6c2.3,0,2.8,1.4,2.8,3.3v8.5h1.9
	v-9.2c0.8-1.7,1.7-2.6,3.5-2.6c2.6,0,2.8,1.8,2.8,4.7v7.1h1.9v-7.5C260.9,100.9,260.3,98,256.6,98z M277.3,104.9
	c0,5.7-2.7,6.8-5.3,6.8c-1.3,0-2.4-0.2-3.4-0.8c0.1,0.9,0.1,1.7,0.1,2.5v1.9h-1.9v-12.2c0-1.6-0.1-3.1-0.5-4.5l1.6-0.4
	c0.2,0.6,0.4,1.3,0.5,1.9c0.8-1.4,2.1-2.1,4.2-2.1C275.9,98,277.3,100.3,277.3,104.9z M275.4,104.9c0-3.2-0.6-5.3-3.1-5.3
	c-1.9,0-2.8,1-3.7,2.6v7.1c1,0.6,2.1,0.8,3.2,0.8C274.1,110.1,275.4,109.2,275.4,104.9z M293,98.3l-1.9,0.3v8.9
	c-0.8,1.7-1.8,2.6-3.7,2.6c-2.7,0-2.9-1.8-2.9-4.7v-7.1l-1.9,0.3v7.2c0,3.1,0.6,5.9,4.4,5.9c2.2,0,3.5-0.7,4.3-2.1
	c0.1,0.7,0.3,1.3,0.5,1.9l1.6-0.4c-0.4-1.4-0.5-3-0.5-4.5V98.3z M301.9,94.1l-1.9,0.3v4h-2.2v1.6h2.2v5.2c0,2.9,0.2,5,2.3,6.6
	l1.3-1.1c-1.6-1.5-1.6-2.8-1.6-5v-5.7h2.7l0.2-1.6h-2.9V94.1z M310.5,96c0.8,0,1.2-0.3,1.2-1.1s-0.5-1.1-1.2-1.1
	c-0.8,0-1.2,0.3-1.2,1.1S309.7,96,310.5,96z M311.4,98.3l-1.9,0.3v8.3c0,1.7,0.1,3.2,0.5,4.5h1.8c-0.4-1.4-0.4-2.9-0.4-4.4V98.3z
	 M323.5,98c-2.2,0-3.5,0.7-4.3,2.1c-0.1-0.7-0.3-1.3-0.5-1.9l-1.6,0.4c0.4,1.4,0.5,3,0.5,4.5v8.3h1.9v-9.2c0.8-1.7,1.8-2.6,3.7-2.6
	c2.7,0,2.9,1.8,2.9,4.7v7.1h1.9v-7.5C327.9,100.9,327.3,98,323.5,98z M338.7,98c1.8,0,3.5,0.2,5.1,0.8v11.6c0,3.6-1.9,5.1-5,5.1
	c-1.2,0-2.5-0.2-3.6-0.7l0.5-1.5c0.9,0.5,2,0.7,3.2,0.7c1.9,0,3.1-0.9,3.1-3.6v-0.9c-0.7,1.3-2,1.8-4,1.8c-3.3,0-4.7-2.2-4.7-6.7
	C333.3,99.3,335.7,98,338.7,98z M342,100.1c-1-0.4-2.2-0.5-3.3-0.5c-2.2,0-3.5,1-3.5,5.1c0,3.1,0.6,5.1,3.1,5.1
	c1.9,0,2.8-0.9,3.7-2.5V100.1z"/>
</svg>
